<svg width="307" height="84" viewBox="0 0 307 84" fill="none" xmlns="http://www.w3.org/2000/svg">
<path d="M68.909 42.5C72.609 45.1 76.309 47.7 80.109 50.4C86.609 55 93.209 59.6 99.709 64.2C104.209 67.4 110.909 67 115.409 63.2C119.809 59.5 121.309 54.7 119.809 49.3C118.309 43.8 114.509 40.6 108.909 39.5C105.409 38.8 102.209 39.6 99.209 41.7C95.609 44.3 91.909 46.8 88.209 49.4C87.509 49.9 87.009 49.9 86.309 49.4C82.009 46.3 77.709 43.3 73.409 40.2C72.609 39.6 72.609 39.6 73.409 39C78.609 35.2 83.909 31.4 89.309 27.7C95.509 23.4 102.309 21.7 109.809 22.4C122.509 23.6 133.109 32.9 136.409 45.4C140.709 61.6 130.209 78.7 114.009 82.5C105.109 84.6 96.709 83.2 89.209 77.9C77.609 69.7 66.109 61.5 54.609 53.3C54.509 53.2 54.409 53.1 54.309 53C59.209 49.6 64.009 46.1 68.909 42.5Z" fill="#23386D"/>
<path d="M30.609 66.5C33.709 66.6 36.409 65.4 38.909 63.6C42.309 61.1 45.809 58.8 49.209 56.4C49.909 55.9 50.509 55.9 51.209 56.4C55.409 59.4 59.609 62.4 63.909 65.5C64.209 65.7 64.509 66 64.909 66.2C62.509 67.9 60.209 69.6 57.909 71.2C54.309 73.7 50.809 76.4 47.109 78.8C43.809 80.9 40.309 82.3 36.409 83C36.309 83 36.109 83 36.009 83C35.109 80.1 34.109 77.3 33.209 74.4C32.409 71.8 31.509 69.1 30.609 66.5Z" fill="#CE7314"/>
<path d="M17.109 25.5C19.909 24 23.009 23.2 26.109 22.7C33.809 21.5 41.009 23.1 47.509 27.4C47.609 27.5 47.809 27.6 47.909 27.7C47.809 27.9 47.809 28 47.709 28.2C46.509 31.9 45.309 35.7 44.009 39.4C43.409 41.2 43.009 43.1 42.309 44.8C41.009 43.9 39.809 43.1 38.509 42.1C33.909 38.5 29.009 38.6 23.909 41.3C23.709 41.4 23.509 41.5 23.309 41.6C21.209 36.2 19.109 30.9 17.109 25.5Z" fill="#604A97"/>
<path d="M42.2 44.4C42.9 42.6 43.3 40.8 43.9 39C44.2 38.9 44.2 38.6 44.3 38.4C45.5 34.8 46.7 31.1 48 27.5C49.7 28.7 51.4 29.8 53 31C58.1 34.7 63.6 38.6 68.7 42.3C68.6 42.2 68.8 42.4 68.7 42.3C63.9 45.8 59.1 49.3 54.2 52.8C50.2 50 46.2 47.2 42.2 44.4Z" fill="#DA4747"/>
<path d="M18.509 46.9C16.909 50.3 16.909 53.8 18.009 57.3C15.209 58.1 12.309 59 9.509 59.8C8.909 59.7 8.409 60 7.909 60.1C5.809 60.7 3.609 61.2 1.509 62C-0.690998 54.8 -0.590998 47.6 2.509 40.6C2.909 40.7 3.209 40.8 3.609 41C5.409 41.7 7.309 42.4 9.109 43.2C12.309 44.5 15.409 45.7 18.509 46.9Z" fill="#47B8B2"/>
<path d="M9.509 59.9C12.309 59.1 15.209 58.2 18.009 57.4C19.209 61 21.509 63.5 24.909 65.1C24.809 65.2 24.809 65.3 24.709 65.5C21.309 69.9 17.809 74.4 14.409 78.8C10.509 76.4 7.409 73.2 5.009 69.4C3.609 67.2 2.409 64.9 1.709 62.3C4.209 61.5 6.909 60.8 9.509 59.9Z" fill="#CE0477"/>
<path d="M14.309 78.7C17.709 74.3 21.209 69.8 24.609 65.4C24.709 65.3 24.709 65.2 24.809 65C26.709 65.8 28.609 66.3 30.609 66.4C31.509 69 32.309 71.7 33.209 74.3C34.109 77.2 35.109 80 36.009 82.9C33.409 83.5 30.809 83.5 28.309 83.4C23.509 83.1 19.009 81.6 14.909 79C14.709 79 14.509 78.8 14.309 78.7Z" fill="#CFBD04"/>
<path d="M18.509 46.9C15.409 45.7 12.209 44.4 9.109 43.2C7.309 42.5 5.409 41.8 3.609 41C3.209 40.9 2.909 40.8 2.509 40.6C5.509 34.2 10.009 29.1 16.309 25.7C16.509 25.6 16.809 25.5 17.109 25.4C19.209 30.8 21.309 36.1 23.309 41.5C21.909 42.6 20.609 43.8 19.609 45.2C19.209 45.9 18.909 46.4 18.509 46.9Z" fill="#49A6C9"/>
<path d="M38.709 8.3C38.709 12.9 35.009 16.6 30.409 16.6C25.809 16.6 22.109 12.9 22.109 8.3C22.109 3.7 25.809 0 30.409 0C35.009 0 38.709 3.7 38.709 8.3Z" fill="#49A6C9"/>
<path d="M95.609 8.3C95.609 3.7 99.309 0 103.909 0C108.509 0 112.209 3.8 112.209 8.4C112.209 12.9 108.509 16.6 103.909 16.7C99.309 16.6 95.609 12.9 95.609 8.3Z" fill="#22396E"/>
<path d="M48.209 27.8C47.009 31.4 45.809 35.1 44.509 38.7C44.409 38.9 44.409 39.2 44.109 39.3C45.309 35.6 46.509 31.8 47.809 28.1C47.909 27.9 47.909 27.8 48.009 27.6C48.009 27.7 48.109 27.8 48.209 27.8Z" fill="#35386D"/>
<path d="M9.509 59.9C6.909 60.8 4.309 61.5 1.609 62.3L1.509 62.2C3.609 61.4 5.709 60.9 7.909 60.3C8.409 60.1 8.909 59.8 9.509 59.9Z" fill="#3E3978"/>
<path d="M153 82.27V65.984H155.04V82.27H153Z" fill="#CE0477"/>
<path d="M160.623 82.27V65.984H162.561L162.629 68.296C163.151 67.5253 163.842 66.8793 164.703 66.358C165.587 65.8367 166.585 65.576 167.695 65.576C169.441 65.576 170.846 66.1313 171.911 67.242C172.977 68.3527 173.509 69.9393 173.509 72.002V82.27H171.469V72.308C171.469 70.7213 171.084 69.5313 170.313 68.738C169.565 67.9447 168.591 67.548 167.389 67.548C166.483 67.548 165.667 67.752 164.941 68.16C164.239 68.5453 163.683 69.078 163.275 69.758C162.89 70.4153 162.697 71.152 162.697 71.968V82.27H160.623Z" fill="#CE0477"/>
<path d="M184.28 82.644C182.829 82.644 181.741 82.338 181.016 81.726C180.291 81.114 179.928 80.0147 179.928 78.428V67.888H176.392V65.984H179.928V60H181.968V65.984H186.932V67.888H181.968V78.088C181.968 79.108 182.183 79.8107 182.614 80.196C183.045 80.5587 183.713 80.74 184.62 80.74C185.005 80.74 185.413 80.6833 185.844 80.57C186.275 80.4567 186.637 80.332 186.932 80.196V82.202C186.615 82.3153 186.207 82.4173 185.708 82.508C185.209 82.5987 184.733 82.644 184.28 82.644Z" fill="#CE0477"/>
<path d="M197.402 82.644C195.929 82.644 194.614 82.304 193.458 81.624C192.325 80.9213 191.43 79.9353 190.772 78.666C190.138 77.374 189.82 75.8553 189.82 74.11C189.82 72.41 190.138 70.9253 190.772 69.656C191.43 68.3867 192.325 67.4007 193.458 66.698C194.592 65.9727 195.884 65.61 197.334 65.61C198.808 65.61 200.054 65.984 201.074 66.732C202.117 67.4573 202.91 68.4093 203.454 69.588C203.998 70.744 204.27 71.968 204.27 73.26V73.94H191.894C191.849 75.98 192.325 77.6347 193.322 78.904C194.342 80.1507 195.714 80.774 197.436 80.774C198.706 80.774 199.771 80.4567 200.632 79.822C201.494 79.1647 202.196 78.2013 202.74 76.932L204.44 77.918C202.99 81.0687 200.644 82.644 197.402 82.644ZM192.03 72.172H202.23C202.117 71.288 201.834 70.4833 201.38 69.758C200.95 69.0327 200.383 68.4547 199.68 68.024C199 67.5933 198.218 67.378 197.334 67.378C195.952 67.378 194.784 67.8087 193.832 68.67C192.903 69.5087 192.302 70.676 192.03 72.172Z" fill="#CE0477"/>
<path d="M208.568 82.27V65.984H210.54L210.642 68.806C211.096 67.854 211.81 67.0833 212.784 66.494C213.782 65.882 214.881 65.576 216.082 65.576C216.4 65.576 216.717 65.5987 217.034 65.644C217.374 65.6667 217.658 65.712 217.884 65.78V67.786C217.68 67.7407 217.386 67.6953 217 67.65C216.638 67.6047 216.264 67.582 215.878 67.582C214.926 67.582 214.054 67.8087 213.26 68.262C212.467 68.6927 211.832 69.282 211.356 70.03C210.903 70.7553 210.676 71.5827 210.676 72.512V82.27H208.568Z" fill="#CE0477"/>
<path d="M225.704 82.576C224.117 82.5987 222.825 82.236 221.828 81.488C220.853 80.74 220.366 79.652 220.366 78.224C220.366 77.136 220.728 76.184 221.454 75.368C222.202 74.552 223.142 73.9173 224.276 73.464C225.432 72.988 226.622 72.75 227.846 72.75C229.523 72.75 230.849 73.1467 231.824 73.94V71.152C231.824 69.6333 231.506 68.6473 230.872 68.194C230.237 67.718 229.217 67.48 227.812 67.48C226.905 67.48 225.896 67.65 224.786 67.99C223.675 68.3073 222.734 68.7153 221.964 69.214L220.978 67.582C221.862 67.0153 222.927 66.5393 224.174 66.154C225.443 65.7687 226.656 65.576 227.812 65.576C229.874 65.576 231.393 65.9727 232.368 66.766C233.342 67.5593 233.83 69.0213 233.83 71.152V80.162C233.83 80.5927 233.943 80.842 234.17 80.91C234.419 80.9553 234.952 80.8987 235.768 80.74V82.202C235.541 82.2927 235.235 82.372 234.85 82.44C234.464 82.5307 234.102 82.576 233.762 82.576C232.991 82.576 232.492 82.4173 232.266 82.1C232.039 81.7827 231.903 81.182 231.858 80.298C231.155 81.0687 230.226 81.6353 229.07 81.998C227.914 82.3607 226.792 82.5533 225.704 82.576ZM225.806 80.706C226.894 80.6833 227.902 80.5133 228.832 80.196C229.784 79.8787 230.532 79.4253 231.076 78.836C231.642 78.224 231.903 77.4873 231.858 76.626C231.79 75.9233 231.404 75.402 230.702 75.062C229.999 74.6993 229.092 74.5293 227.982 74.552C227.052 74.552 226.157 74.7107 225.296 75.028C224.434 75.3453 223.732 75.7873 223.188 76.354C222.666 76.898 222.406 77.5327 222.406 78.258C222.406 79.0967 222.723 79.72 223.358 80.128C223.992 80.5133 224.808 80.706 225.806 80.706Z" fill="#CE0477"/>
<path d="M245.513 82.644C244.062 82.644 242.77 82.2927 241.637 81.59C240.504 80.8647 239.608 79.856 238.951 78.564C238.294 77.272 237.965 75.7873 237.965 74.11C237.965 72.4327 238.294 70.9593 238.951 69.69C239.608 68.398 240.504 67.4007 241.637 66.698C242.77 65.9727 244.062 65.61 245.513 65.61C246.669 65.61 247.734 65.848 248.709 66.324C249.706 66.7773 250.556 67.4573 251.259 68.364L249.627 69.588C248.607 68.228 247.236 67.548 245.513 67.548C243.926 67.548 242.612 68.1487 241.569 69.35C240.549 70.5287 240.039 72.1153 240.039 74.11C240.039 76.1047 240.549 77.7027 241.569 78.904C242.612 80.1053 243.926 80.706 245.513 80.706C247.236 80.706 248.607 80.026 249.627 78.666L251.259 79.89C249.808 81.726 247.893 82.644 245.513 82.644Z" fill="#CE0477"/>
<path d="M261.743 82.644C260.292 82.644 259.204 82.338 258.479 81.726C257.754 81.114 257.391 80.0147 257.391 78.428V67.888H253.855V65.984H257.391V60H259.431V65.984H264.395V67.888H259.431V78.088C259.431 79.108 259.646 79.8107 260.077 80.196C260.508 80.5587 261.176 80.74 262.083 80.74C262.468 80.74 262.876 80.6833 263.307 80.57C263.738 80.4567 264.1 80.332 264.395 80.196V82.202C264.078 82.3153 263.67 82.4173 263.171 82.508C262.672 82.5987 262.196 82.644 261.743 82.644Z" fill="#CE0477"/>
<path d="M268.779 82.27V65.984H270.819V82.27H268.779Z" fill="#CE0477"/>
<path d="M281.298 82.27L274.872 65.984H277.014L282.148 79.312L287.146 65.984H289.22L283.032 82.27H281.298Z" fill="#CE0477"/>
<path d="M298.738 82.644C297.265 82.644 295.95 82.304 294.794 81.624C293.661 80.9213 292.766 79.9353 292.108 78.666C291.474 77.374 291.156 75.8553 291.156 74.11C291.156 72.41 291.474 70.9253 292.108 69.656C292.766 68.3867 293.661 67.4007 294.794 66.698C295.928 65.9727 297.22 65.61 298.67 65.61C300.144 65.61 301.39 65.984 302.41 66.732C303.453 67.4573 304.246 68.4093 304.79 69.588C305.334 70.744 305.606 71.968 305.606 73.26V73.94H293.23C293.185 75.98 293.661 77.6347 294.658 78.904C295.678 80.1507 297.05 80.774 298.772 80.774C300.042 80.774 301.107 80.4567 301.968 79.822C302.83 79.1647 303.532 78.2013 304.076 76.932L305.776 77.918C304.326 81.0687 301.98 82.644 298.738 82.644ZM293.366 72.172H303.566C303.453 71.288 303.17 70.4833 302.716 69.758C302.286 69.0327 301.719 68.4547 301.016 68.024C300.336 67.5933 299.554 67.378 298.67 67.378C297.288 67.378 296.12 67.8087 295.168 68.67C294.239 69.5087 293.638 70.676 293.366 72.172Z" fill="#CE0477"/>
<path d="M178.909 32.2C178.909 27.9 178.809 24.1 178.609 21.1H188.609L189.109 25.2H189.309C190.509 23.6 193.309 20.4 199.009 20.4C203.209 20.4 206.409 22.3 207.809 25.6H207.909C209.209 23.9 210.709 22.6 212.409 21.7C214.109 20.8 216.009 20.4 218.209 20.4C225.209 20.4 229.309 25.5 229.309 34.6V53.8H217.709V36.4C217.709 32.4 216.509 30 213.909 30C212.009 30 210.809 31.2 210.309 32.8C210.109 33.5 210.009 34.5 210.009 35.2V53.8H198.309V36.1C198.309 32.5 197.209 30.1 194.509 30.1C192.409 30.1 191.309 31.7 190.909 32.8C190.609 33.6 190.609 34.4 190.609 35.2V53.9H178.909V32.2Z" fill="#23386D"/>
<path d="M250.509 53.7L249.909 50.8H249.709C247.409 53.4 244.209 54.3999 240.709 54.3999C234.009 54.3999 229.909 49.6 229.909 44.2C229.909 35.4 237.809 31.5 248.909 31.5V31.2C248.909 29.9 247.909 28.4 243.509 28.4C240.109 28.4 236.409 29.6 234.309 30.8L232.209 23.2C234.309 22.1 238.909 20.2 245.709 20.2C256.909 20.2 260.809 26.5 260.809 34.6V45.6C260.809 48.9 261.009 51.9 261.309 53.5H250.509V53.7ZM249.109 38.8C244.209 38.8 241.509 40.2 241.509 43C241.509 45.1 242.909 46.2 244.909 46.2C246.609 46.2 248.409 45 249.009 43.2C249.109 42.7 249.109 42.1 249.109 41.5V38.8Z" fill="#23386D"/>
<path d="M263.109 32.1C263.109 26.9 263.009 23.8 262.809 21.1H273.009L273.409 27H273.709C275.409 22.1 279.609 20.4 282.409 20.4C283.509 20.4 283.909 20.4 284.809 20.6L285.109 31.5C284.409 31.4 283.109 31.4 281.809 31.4C278.309 31.4 275.909 32.9 275.309 35.5C275.209 36.1 275.109 36.8 275.109 37.5V53.6H263.109V32.1Z" fill="#23386D"/>
<path d="M299.309 11.8V21.1H306.109V29.9H299.309V39.3C299.309 43.2 300.209 44.8 303.109 44.8C304.309 44.8 305.309 44.7 305.909 44.6V53.7C304.509 54.2 301.909 54.6 298.809 54.6C295.309 54.6 292.309 53.4 290.609 51.6C288.609 49.6 287.609 46.4 287.609 41.4V31.5H283.609V20.4H287.609V14.4L299.309 11.8Z" fill="#23386D"/>
<path d="M153.009 44.5C154.909 45.7 159.209 47 162.209 47C164.809 47 165.809 46.4 165.809 45.2C165.809 44 165.009 43.4 161.509 42.3C154.209 40 151.709 36 151.809 32.2C151.809 25.6 157.409 20.8 166.109 20.8C170.209 20.8 173.909 21.7 176.009 22.7L174.109 31C172.509 30.2 169.409 29.2 166.809 29.2C164.709 29.2 163.509 29.8 163.509 31.1C163.509 32.2 164.509 32.9 168.509 34.2C175.009 36.3 177.509 39.7 177.609 44.5C177.609 50.8 172.709 55.6 162.509 55.6C157.909 55.6 153.809 54.6 151.209 53.3L153.009 44.5Z" fill="#23386D"/>
</svg>
